<?xml version="1.0" encoding="utf-8"?>
<!-- Generator: Adobe Illustrator 15.1.0, SVG Export Plug-In . SVG Version: 6.00 Build 0)  -->
<!DOCTYPE svg PUBLIC "-//W3C//DTD SVG 1.1//EN" "http://www.w3.org/Graphics/SVG/1.1/DTD/svg11.dtd">
<svg version="1.1" id="Layer_1" xmlns="http://www.w3.org/2000/svg" xmlns:xlink="http://www.w3.org/1999/xlink" x="0px" y="0px"
	 width="73.431px" height="72.555px" viewBox="0 0 73.431 72.555" enable-background="new 0 0 73.431 72.555" xml:space="preserve">
<g>
	<path fill="#010101" d="M31.808,26.564c-0.173,0.135-0.347,0.269-0.519,0.407h0.519V26.564z"/>
	<path fill="#010101" d="M36.731,1.599c-19.077,0-34.595,15.52-34.595,34.597c0,19.074,15.518,34.595,34.595,34.595
		c19.068,0,34.583-15.521,34.583-34.595C71.315,17.118,55.8,1.599,36.731,1.599z M36.731,68.462
		c-17.824,0-32.271-14.449-32.271-32.268c0-17.823,14.448-32.272,32.271-32.272c17.812,0,32.26,14.45,32.26,32.272
		C68.991,54.013,54.544,68.462,36.731,68.462z"/>
	<path fill="#010101" d="M28.413,29.503v-2.532h2.877c0.171-0.138,0.346-0.272,0.519-0.407v-8.057h5.676v1.1h1.099v2.556
		c6.243-3.308,13.345-5.206,20.902-5.263c-5.441-6.351-13.514-10.379-22.53-10.379c-16.389,0-29.674,13.285-29.674,29.675
		c0,7.532,2.812,14.404,7.437,19.637C16.285,45.538,21.236,36.361,28.413,29.503z"/>
	<rect x="29.513" y="31.532" fill="#010101" width="2.295" height="1.1"/>
	<path fill="#010101" d="M40.464,53.938c-2.121,0-3.976-0.684-5.57-2.036c0.18,0.217,0.37,0.427,0.574,0.627
		c1.707,1.671,3.737,2.508,6.094,2.508c2.466,0,4.695-0.896,6.69-2.687l-2.331-4.005c-0.098,0.104-0.201,0.178-0.301,0.272
		l1.533,2.634C45.159,53.042,42.93,53.938,40.464,53.938z"/>
	<path fill="#010101" d="M37.484,31.532v13.285c0,1.283,0.335,2.304,1.009,3.064c0.224,0.253,0.481,0.448,0.755,0.617
		c-0.437-0.694-0.665-1.55-0.665-2.583V32.632h7.085v-4.561h-1.099v3.461H37.484z"/>
	<polygon fill="#010101" points="37.484,19.607 37.484,26.971 38.583,26.971 38.583,22.163 38.583,19.607 	"/>
	<g>
		<path fill="none" d="M31.808,26.564c-0.173,0.135-0.347,0.269-0.519,0.407h0.519V26.564z"/>
		<path fill="none" d="M37.484,31.532v13.285c0,1.283,0.335,2.304,1.009,3.064c0.224,0.253,0.481,0.448,0.755,0.617
			c-0.437-0.694-0.665-1.55-0.665-2.583V32.632h7.085v-4.561h-1.099v3.461H37.484z"/>
		<path fill="none" d="M40.464,53.938c-2.121,0-3.976-0.684-5.57-2.036c0.18,0.217,0.37,0.427,0.574,0.627
			c1.707,1.671,3.737,2.508,6.094,2.508c2.466,0,4.695-0.896,6.69-2.687l-2.331-4.005c-0.098,0.104-0.201,0.178-0.301,0.272
			l1.533,2.634C45.159,53.042,42.93,53.938,40.464,53.938z"/>
		<rect x="29.513" y="31.532" fill="none" width="2.295" height="1.1"/>
		<polygon fill="none" points="37.484,19.607 37.484,26.971 38.583,26.971 38.583,22.163 38.583,19.607 		"/>
		<path fill="#010101" d="M59.485,16.9c-7.558,0.057-14.659,1.955-20.902,5.263v4.809h5.986v1.1h1.099v4.561h-7.085v13.284
			c0,1.033,0.229,1.889,0.665,2.583c0.547,0.337,1.183,0.521,1.926,0.521c1.317,0,2.531-0.59,3.649-1.773l0.798,1.371
			c0.1-0.095,0.203-0.169,0.301-0.272l2.331,4.005c-1.995,1.79-4.225,2.687-6.69,2.687c-2.357,0-4.388-0.837-6.094-2.508
			c-0.204-0.2-0.395-0.41-0.574-0.627c-0.178-0.151-0.354-0.304-0.526-0.472c-1.708-1.676-2.56-3.929-2.56-6.768V32.632h-2.295v-1.1
			h-1.1v-2.029c-7.176,6.858-12.127,16.035-13.694,26.329c5.437,6.151,13.381,10.035,22.237,10.035
			c16.383,0,29.668-13.284,29.668-29.672C66.624,28.825,63.932,22.088,59.485,16.9z"/>
		
			<linearGradient id="SVGID_1_" gradientUnits="userSpaceOnUse" x1="152.0352" y1="176.7656" x2="156.6164" y2="183.6506" gradientTransform="matrix(4.7173 0 0 4.4512 -704.0062 -784.2084)">
			<stop  offset="0" style="stop-color:#FFFFFF"/>
			<stop  offset="1" style="stop-color:#FFFFFF;stop-opacity:0"/>
		</linearGradient>
		<path fill="url(#SVGID_1_)" d="M28.413,29.503v-2.532h2.877c0.171-0.138,0.346-0.272,0.519-0.407v-8.057h5.676v1.1h1.099v2.556
			c6.243-3.308,13.345-5.206,20.902-5.263c-5.441-6.351-13.514-10.379-22.53-10.379c-16.389,0-29.674,13.285-29.674,29.675
			c0,7.532,2.812,14.404,7.437,19.637C16.285,45.538,21.236,36.361,28.413,29.503z"/>
	</g>
</g>
</svg>
