<?xml version="1.0" encoding="utf-8"?>
<!-- Generator: Adobe Illustrator 15.1.0, SVG Export Plug-In . SVG Version: 6.00 Build 0)  -->
<!DOCTYPE svg PUBLIC "-//W3C//DTD SVG 1.1//EN" "http://www.w3.org/Graphics/SVG/1.1/DTD/svg11.dtd">
<svg version="1.1"
	 id="Layer_1" xmlns:inkscape="http://www.inkscape.org/namespaces/inkscape" inkscape:version="0.48.1 r9760" xmlns:cc="http://creativecommons.org/ns#" xmlns:rdf="http://www.w3.org/1999/02/22-rdf-syntax-ns#" sodipodi:docname="insteon_LED.svg" xmlns:dc="http://purl.org/dc/elements/1.1/" xmlns:sodipodi="http://sodipodi.sourceforge.net/DTD/sodipodi-0.dtd" xmlns:svg="http://www.w3.org/2000/svg"
	 xmlns="http://www.w3.org/2000/svg" xmlns:xlink="http://www.w3.org/1999/xlink" x="0px" y="0px" width="44.637px"
	 height="44.637px" viewBox="0 0 44.637 44.637" enable-background="new 0 0 44.637 44.637" xml:space="preserve">
<sodipodi:namedview  pagecolor="#ffffff" objecttolerance="10" borderopacity="1" id="namedview11726" inkscape:window-width="1910" bordercolor="#666666" gridtolerance="10" guidetolerance="10" inkscape:pageopacity="0" inkscape:pageshadow="2" inkscape:window-height="1156" showgrid="false" inkscape:zoom="21.013957" inkscape:cx="22.318501" inkscape:cy="22.318501" inkscape:window-x="0" inkscape:window-y="0" inkscape:window-maximized="0" inkscape:current-layer="Layer_1">
	</sodipodi:namedview>
<g id="g11706">
	<g id="g11708">
	</g>
	<g id="g11712">
	</g>
	<g id="g11716">
	</g>
	<g id="g11720">
	</g>
</g>
<g>
	<path d="M30.194,21.323c-0.439-1.005-0.854-1.796-1.622-1.908c0.247,0.729,0.569,1.625,0.772,2.176l-0.627,0.233
		c-0.041-0.108-0.984-2.676-1.126-3.333c-0.037-0.16-0.378-1.518-1.751-1.423c0.253,1.05,0.902,3.351,0.91,3.377l-0.646,0.182
		c-0.032-0.121-0.835-2.958-0.991-3.755c-0.082-0.405-0.344-0.944-0.828-1.239c-0.393-0.237-0.879-0.281-1.442-0.134
		c0.446,1.763,1.039,3.731,1.638,4.531l-0.533,0.4c-0.969-1.291-1.841-4.958-2.415-7.606l-0.117-0.542
		c-0.182-0.844-0.559-2.599-1.172-2.959c-0.105-0.062-0.204-0.072-0.323-0.036c-0.562,0.169-0.265,2.839-0.027,4.983
		c0.146,1.328,0.313,2.833,0.375,4.259c0.186,4.355-0.344,6.21-0.366,6.287l-0.32-0.095l-0.32-0.094
		c0.001-0.01,0.117-0.416,0.219-1.281c-1.5-0.174-2.174-2.415-2.204-2.519l-0.018-0.055l0.003-0.057
		c0.001-0.028,0.125-2.723-0.866-3.762c-0.242-0.254-0.528-0.377-0.873-0.377c-0.011,0-0.022-0.004-0.046,0.022
		c-0.339,0.369-0.188,2.211-0.108,3.201c0.053,0.64,0.094,1.144,0.064,1.438c-0.027,0.281,0.447,1.921,0.903,3.276l0.011,0.04
		c0.793,3.968,6.6,12.353,6.656,12.438c0,0,0.748,0.891,3.534,0.018c2.237-0.697,2.95-1.559,3.174-2.007
		c0.146-0.29,0.175-0.571,0.088-0.816l-0.011-0.041c-0.014-0.059-0.322-1.482,0.159-2.599c0.433-0.998,0.569-3.117,0.614-3.814
		c0.006-0.112,0.021-0.281,0.037-0.492c0.087-1.106,0.357-4.477-0.047-5.166C30.428,21.867,30.315,21.602,30.194,21.323z"/>
	<path d="M22.465,3.102c-10.573,0-19.146,8.572-19.146,19.146c0,10.57,8.573,19.143,19.146,19.143
		c10.577,0,19.144-8.574,19.145-19.143C41.61,11.673,33.039,3.102,22.465,3.102z M24.114,6.268L23.825,5.65l2.41,0.876l-0.878,2.408
		l-0.301-0.646l-1.812,0.842l-0.937-2.017L24.114,6.268z M14.178,10.152l0.302,0.646l1.81-0.844l0.942,2.019l-1.81,0.844l0.288,0.62
		l-2.408-0.876L14.178,10.152z M31.265,27.291c-0.017,0.207-0.028,0.373-0.035,0.482c-0.081,1.26-0.24,3.047-0.669,4.037
		c-0.369,0.859-0.152,2.021-0.123,2.172c0.139,0.41,0.092,0.875-0.129,1.317c-0.332,0.664-1.223,1.613-3.573,2.348
		c-0.978,0.305-1.745,0.415-2.341,0.415c-1.396,0-1.874-0.596-1.938-0.689c-0.246-0.35-5.924-8.558-6.761-12.669
		c-0.24-0.718-0.98-2.985-0.927-3.533c0.023-0.235-0.02-0.761-0.066-1.319c-0.144-1.771-0.215-3.166,0.281-3.707
		c0.144-0.156,0.328-0.238,0.533-0.239h0.01c0.529,0,0.984,0.196,1.354,0.584c1.11,1.164,1.069,3.75,1.052,4.195
		c0.1,0.299,0.656,1.851,1.615,1.987c0.082-0.977,0.129-2.335,0.054-4.118c-0.059-1.402-0.225-2.896-0.372-4.212
		c-0.357-3.231-0.594-5.366,0.497-5.696c0.298-0.09,0.594-0.056,0.856,0.099c0.801,0.471,1.176,1.936,1.489,3.396l0.117,0.542
		c0.104,0.478,0.277,1.27,0.493,2.167c0.744-0.191,1.398-0.123,1.949,0.21c0.619,0.376,0.912,0.96,1.046,1.35
		c1.649-0.188,2.388,1.12,2.567,1.939c0.019,0.087,0.055,0.22,0.105,0.381c1.426-0.028,2.04,1.374,2.456,2.324
		c0.112,0.258,0.218,0.503,0.321,0.678C31.579,22.496,31.461,24.858,31.265,27.291z"/>
	<path d="M0,0v44.637h44.637V0H0z M22.32,43.061c-11.498,0-20.813-9.316-20.813-20.812c0-11.5,9.315-20.821,20.813-20.821
		c11.496,0,20.816,9.321,20.816,20.821C43.136,33.744,33.816,43.064,22.32,43.061z"/>
</g>
</svg>
