<?xml version="1.0" encoding="utf-8"?>
<!-- Generator: Adobe Illustrator 15.1.0, SVG Export Plug-In . SVG Version: 6.00 Build 0)  -->
<!DOCTYPE svg PUBLIC "-//W3C//DTD SVG 1.1//EN" "http://www.w3.org/Graphics/SVG/1.1/DTD/svg11.dtd">
<svg version="1.1"
	 id="Layer_1" xmlns:sodipodi="http://sodipodi.sourceforge.net/DTD/sodipodi-0.dtd" inkscape:version="0.48.2 r9819" xmlns:cc="http://creativecommons.org/ns#" xmlns:svg="http://www.w3.org/2000/svg" sodipodi:docname="ecobee.svg" xmlns:dc="http://purl.org/dc/elements/1.1/" xmlns:inkscape="http://www.inkscape.org/namespaces/inkscape" xmlns:rdf="http://www.w3.org/1999/02/22-rdf-syntax-ns#"
	 xmlns="http://www.w3.org/2000/svg" xmlns:xlink="http://www.w3.org/1999/xlink" x="0px" y="0px" width="44.637px"
	 height="44.637px" viewBox="0 0 44.637 44.637" enable-background="new 0 0 44.637 44.637" xml:space="preserve">
<g>
	<path fill="#231F20" d="M24.87,30.826c1.217,0.554,2.604,0.543,4.018-0.026c2.075-0.837,3.771-3.33,3.013-6.056
		c-0.423-1.52-1.346-2.575-2.847-3.25v7.828h-6.071C23.516,29.982,24.156,30.502,24.87,30.826z"/>
	<path fill="#231F20" d="M22.465,3.176C11.892,3.176,3.32,11.747,3.32,22.32c0,10.573,8.571,19.146,19.146,19.146
		S41.61,32.895,41.61,22.321C41.61,11.748,33.039,3.176,22.465,3.176z M35.563,32.568c-1.742,2.263-4.499,3.884-7.193,4.231
		c-0.514,0.065-1.021,0.098-1.519,0.098c-4.782,0-8.782-2.971-10.229-7.572H9.941V10.328h19.113v5.216
		c4.323,0.92,7.5,3.94,8.442,8.169C38.192,26.847,37.487,30.074,35.563,32.568z"/>
	<path fill="#231F20" d="M29.054,17.597v1.76c2.507,0.87,4.115,2.491,4.773,4.853c1.056,3.805-1.304,7.282-4.19,8.444
		c-0.963,0.391-1.927,0.583-2.865,0.583c-0.941,0-1.86-0.194-2.729-0.59c-1.425-0.646-2.632-1.827-3.454-3.323h-1.863
		c1.612,4.195,5.715,5.967,9.386,5.49c2.188-0.28,4.438-1.609,5.866-3.468c1.562-2.021,2.132-4.646,1.565-7.198
		C34.797,20.801,32.418,18.446,29.054,17.597z"/>
	<path fill="#231F20" d="M-0.1,0V44.73h44.737V0H-0.1z M22.32,43.138c-11.497,0-20.812-9.322-20.812-20.818
		C1.501,10.823,10.821,1.5,22.32,1.5c11.496,0,20.816,9.323,20.816,20.812C43.136,33.815,33.816,43.138,22.32,43.138z"/>
</g>
<sodipodi:namedview  inkscape:bbox-paths="true" inkscape:snap-intersection-paths="true" inkscape:snap-bbox="true" inkscape:snap-smooth-nodes="true" id="namedview12" inkscape:snap-object-midpoints="true" inkscape:bbox-nodes="true" pagecolor="#ffffff" inkscape:cx="597.62738" bordercolor="#666666" borderopacity="1" inkscape:cy="9.0729667" inkscape:pageopacity="0" inkscape:pageshadow="2" inkscape:zoom="0.95462384" inkscape:current-layer="Oeil" showgrid="false" inkscape:window-width="1920" inkscape:window-height="1021" inkscape:window-x="0" inkscape:window-y="27" inkscape:window-maximized="1" guidetolerance="10" objecttolerance="10" gridtolerance="10" inkscape:snap-midpoints="true" inkscape:object-paths="true" inkscape:snap-bbox-edge-midpoints="true" inkscape:snap-bbox-midpoints="true" inkscape:snap-global="false" inkscape:object-nodes="true" inkscape:snap-center="true">
	</sodipodi:namedview>
<title  id="titre">Oeil eye</title>
<desc  id="description">Crée par Victor GASIA 2012 pour Wikimedia Commons</desc>
<path fill="#231F20" d="M25.08,19.153l-0.105,0.246c-0.093,0.216-0.183,0.444-0.273,0.677c-0.424,1.088-0.863,2.213-1.774,2.496
	c-0.105,0.032-0.207,0.049-0.306,0.049c-0.523,0-1.03-0.481-1.548-1.471c-0.315-0.602-0.568-1.286-0.835-2.011
	c-0.665-1.805-1.353-3.671-3.112-4.305c-0.38-0.137-0.992-0.194-1.359-0.111c-2.089,0.467-2.896,2.684-3.545,4.465l-0.283,0.773
	h1.616l0.288-0.017l0.098-0.263c0.381-1.019,0.812-2.173,1.506-2.805c0.434-0.396,1.125-0.405,1.57-0.024
	c0.737,0.631,1.119,1.709,1.523,2.85c0.1,0.282,0.199,0.564,0.306,0.842c0.566,1.483,1.277,2.95,2.628,3.621
	c0.363,0.179,0.778,0.274,1.201,0.274c0.507,0,1.013-0.139,1.425-0.39c1.397-0.852,2.096-2.604,2.639-4.373l0.161-0.524H25.08z"/>
</svg>
