<?xml version="1.0" encoding="utf-8"?>
<!-- Generator: Adobe Illustrator 15.1.0, SVG Export Plug-In . SVG Version: 6.00 Build 0)  -->
<!DOCTYPE svg PUBLIC "-//W3C//DTD SVG 1.1//EN" "http://www.w3.org/Graphics/SVG/1.1/DTD/svg11.dtd">
<svg version="1.1" id="Layer_1" xmlns="http://www.w3.org/2000/svg" xmlns:xlink="http://www.w3.org/1999/xlink" x="0px" y="0px"
	 width="40px" height="41px" viewBox="0 0 40 41" enable-background="new 0 0 40 41" xml:space="preserve">
<path d="M34.992,20.793c0-8.284-6.715-15-15-15c-8.284,0-15,6.717-15,15c0,8.286,6.716,15.001,15,15.001
	C28.277,35.795,34.992,29.079,34.992,20.793z"/>
<circle fill="#FFFFFF" cx="19.992" cy="20.793" r="12.6"/>
<path d="M22.367,26.576c2.143-1.781,4.283-3.564,6.426-5.348c0.156-0.132,0.213-0.286,0.203-0.436
	c0.01-0.148-0.047-0.306-0.203-0.436c-2.143-1.783-4.283-3.565-6.426-5.349c-0.396-0.33-1.049-0.139-1.049,0.436
	c0,0.748,0,1.496,0,2.244c-3.238,0-6.479,0-9.717,0c-0.335,0-0.614,0.277-0.614,0.613c0,1.658,0,3.32,0,4.98
	c0,0.336,0.279,0.615,0.614,0.615c3.238,0,6.479,0,9.717,0c0,0.748,0,1.496,0,2.242C21.318,26.715,21.971,26.906,22.367,26.576z"/>
</svg>
