<?xml version="1.0" encoding="utf-8"?>
<!-- Generator: Adobe Illustrator 15.1.0, SVG Export Plug-In . SVG Version: 6.00 Build 0)  -->
<!DOCTYPE svg PUBLIC "-//W3C//DTD SVG 1.1//EN" "http://www.w3.org/Graphics/SVG/1.1/DTD/svg11.dtd">
<svg version="1.1" id="Layer_1" xmlns="http://www.w3.org/2000/svg" xmlns:xlink="http://www.w3.org/1999/xlink" x="0px" y="0px"
	 width="40px" height="41px" viewBox="0 0 40 41" enable-background="new 0 0 40 41" xml:space="preserve">
<path d="M20,36c8.283,0,15-6.716,15-15S28.283,6,20,6C11.716,6,5,12.716,5,21S11.716,36,20,36z"/>
<circle fill="#FFFFFF" cx="20" cy="21" r="12.6"/>
<path d="M14.219,23.374c1.781,2.143,3.564,4.283,5.348,6.426c0.131,0.156,0.285,0.213,0.434,0.203
	c0.148,0.01,0.305-0.047,0.435-0.203c1.783-2.143,3.565-4.283,5.349-6.426c0.33-0.396,0.139-1.048-0.435-1.048
	c-0.748,0-1.496,0-2.244,0c0-3.237,0-6.478,0-9.716c0-0.335-0.278-0.614-0.614-0.614c-1.658,0-3.318,0-4.979,0
	c-0.335,0-0.614,0.279-0.614,0.614c0,3.238,0,6.479,0,9.716c-0.748,0-1.496,0-2.243,0C14.08,22.326,13.889,22.978,14.219,23.374z"/>
</svg>
