<?xml version="1.0" encoding="utf-8"?>
<!-- Generator: Adobe Illustrator 15.1.0, SVG Export Plug-In . SVG Version: 6.00 Build 0)  -->
<!DOCTYPE svg PUBLIC "-//W3C//DTD SVG 1.1//EN" "http://www.w3.org/Graphics/SVG/1.1/DTD/svg11.dtd">
<svg version="1.1" id="Layer_1" xmlns="http://www.w3.org/2000/svg" xmlns:xlink="http://www.w3.org/1999/xlink" x="0px" y="0px"
	 width="60px" height="60px" viewBox="-4.656 -10.326 60 60" enable-background="new -4.656 -10.326 60 60" xml:space="preserve">
<path d="M25.344,49.674c16.566,0,30-13.432,30-30s-13.434-30-30-30c-16.568,0-30,13.432-30,30S8.776,49.674,25.344,49.674z"/>
<circle fill="#FFFFFF" cx="25.344" cy="19.673" r="25.2"/>
<path d="M13.783,24.422c3.562,4.287,7.127,8.566,10.696,12.852c0.262,0.312,0.57,0.428,0.867,0.406
	c0.297,0.021,0.611-0.094,0.871-0.406c3.564-4.285,7.129-8.564,10.697-12.852c0.66-0.791,0.277-2.096-0.871-2.096
	c-1.496,0-2.992,0-4.488,0c0-6.475,0-12.956,0-19.433c0-0.67-0.555-1.228-1.227-1.228c-3.316,0-6.637,0-9.958,0
	c-0.67,0-1.229,0.558-1.229,1.228c0,6.477,0,12.958,0,19.433c-1.496,0-2.992,0-4.486,0C13.504,22.326,13.123,23.631,13.783,24.422z"
	/>
</svg>
