<?xml version="1.0" encoding="UTF-8" standalone="no"?>
<!-- Generator: Adobe Illustrator 15.1.0, SVG Export Plug-In . SVG Version: 6.00 Build 0)  -->

<svg
   xmlns:dc="http://purl.org/dc/elements/1.1/"
   xmlns:cc="http://creativecommons.org/ns#"
   xmlns:rdf="http://www.w3.org/1999/02/22-rdf-syntax-ns#"
   xmlns:svg="http://www.w3.org/2000/svg"
   xmlns="http://www.w3.org/2000/svg"
   xmlns:sodipodi="http://sodipodi.sourceforge.net/DTD/sodipodi-0.dtd"
   xmlns:inkscape="http://www.inkscape.org/namespaces/inkscape"
   version="1.1"
   id="Layer_1"
   x="0px"
   y="0px"
   width="26.782"
   height="26.784"
   viewBox="0 0 26.782 26.784"
   enable-background="new 0 0 612 792"
   xml:space="preserve"
   inkscape:version="0.48.2 r9819"
   sodipodi:docname="thing.system.svg"><metadata
   id="metadata13"><rdf:RDF><cc:Work
       rdf:about=""><dc:format>image/svg+xml</dc:format><dc:type
         rdf:resource="http://purl.org/dc/dcmitype/StillImage" /></cc:Work></rdf:RDF></metadata><defs
   id="defs11" /><sodipodi:namedview
   pagecolor="#ffffff"
   bordercolor="#666666"
   borderopacity="1"
   objecttolerance="10"
   gridtolerance="10"
   guidetolerance="10"
   inkscape:pageopacity="0"
   inkscape:pageshadow="2"
   inkscape:window-width="640"
   inkscape:window-height="480"
   id="namedview9"
   showgrid="false"
   fit-margin-top="0"
   fit-margin-left="0"
   fit-margin-right="0"
   fit-margin-bottom="0"
   inkscape:zoom="0.2979798"
   inkscape:cx="13.5952"
   inkscape:cy="13.1434"
   inkscape:window-x="0"
   inkscape:window-y="0"
   inkscape:window-maximized="0"
   inkscape:current-layer="Layer_1" />
<g
   id="g74"
   transform="translate(180.334,252.164)">
	<path
   id="path76"
   connector-curvature="0"
   d="m -166.942,-252.164 c -7.384,0 -13.392,6.008 -13.392,13.392 0,7.385 6.007,13.392 13.392,13.392 7.383,0 13.39,-6.007 13.39,-13.392 0,-7.384 -6.007,-13.392 -13.39,-13.392"
   inkscape:connector-curvature="0" />
</g>
<g
   id="g78"
   transform="translate(180.4785,210.6992)">
	<path
   id="path80"
   connector-curvature="0"
   d="m -167,-185.82 c -6.343,0 -11.487,-5.143 -11.487,-11.487 0,-6.343 5.144,-11.486 11.487,-11.486 6.344,0 11.488,5.143 11.488,11.486 0,6.344 -5.144,11.487 -11.488,11.487 m -0.087,-23.979 c -6.899,0 -12.492,5.593 -12.492,12.492 0,6.897 5.593,12.491 12.492,12.491 6.899,0 12.491,-5.594 12.491,-12.491 0,-6.899 -5.592,-12.492 -12.491,-12.492"
   inkscape:connector-curvature="0"
   style="fill:#ffffff" />
</g>
<g
   id="g82"
   transform="translate(180.7319,232.8105)">
	<path
   id="path84"
   connector-curvature="0"
   d="m -167.102,-221.199 v 5.031 c 0,0.486 0.128,0.873 0.384,1.161 0.256,0.288 0.595,0.433 1.018,0.433 0.498,0 0.959,-0.224 1.382,-0.672 l 0.884,1.517 c -0.756,0.679 -1.602,1.019 -2.535,1.019 -0.896,0 -1.667,-0.317 -2.313,-0.951 -0.647,-0.635 -0.97,-1.488 -0.97,-2.562 v -4.973 h -1.286 v -1.728 h 1.286 v -3.207 h 2.15 v 3.207 h 2.688 v 1.728 l -2.688,-0.003 0,0 z"
   inkscape:connector-curvature="0"
   style="fill:#ffffff" />
</g>
</svg>