<?xml version="1.0" encoding="UTF-8" standalone="no"?>
<!-- Generator: Adobe Illustrator 15.1.0, SVG Export Plug-In . SVG Version: 6.00 Build 0)  -->

<svg
   xmlns:dc="http://purl.org/dc/elements/1.1/"
   xmlns:cc="http://creativecommons.org/ns#"
   xmlns:rdf="http://www.w3.org/1999/02/22-rdf-syntax-ns#"
   xmlns:svg="http://www.w3.org/2000/svg"
   xmlns="http://www.w3.org/2000/svg"
   xmlns:sodipodi="http://sodipodi.sourceforge.net/DTD/sodipodi-0.dtd"
   xmlns:inkscape="http://www.inkscape.org/namespaces/inkscape"
   version="1.1"
   id="Layer_1"
   x="0px"
   y="0px"
   width="193.88338"
   height="26.782499"
   viewBox="0 0 193.88338 26.782499"
   enable-background="new 0 0 612 792"
   xml:space="preserve"
   inkscape:version="0.48.2 r9819"
   sodipodi:docname="thing.system.logo.svg"><metadata
   id="metadata45"><rdf:RDF><cc:Work
       rdf:about=""><dc:format>image/svg+xml</dc:format><dc:type
         rdf:resource="http://purl.org/dc/dcmitype/StillImage" /><dc:title></dc:title></cc:Work></rdf:RDF></metadata><defs
   id="defs43" /><sodipodi:namedview
   pagecolor="#ffffff"
   bordercolor="#666666"
   borderopacity="1"
   objecttolerance="10"
   gridtolerance="10"
   guidetolerance="10"
   inkscape:pageopacity="0"
   inkscape:pageshadow="2"
   inkscape:window-width="640"
   inkscape:window-height="480"
   id="namedview41"
   showgrid="false"
   fit-margin-top="0"
   fit-margin-left="0"
   fit-margin-right="0"
   fit-margin-bottom="0"
   inkscape:zoom="0.2979798"
   inkscape:cx="97.59375"
   inkscape:cy="26.1425"
   inkscape:window-x="0"
   inkscape:window-y="0"
   inkscape:window-maximized="0"
   inkscape:current-layer="Layer_1" />
<g
   id="g10"
   transform="matrix(1.25,0,0,-1.25,-771.431,397.79425)"
   groupmode="layer"
   label="thing.system.logo">
	<g
   id="g12">
		<g
   id="g5">
			<g
   id="g14">
				<g
   id="g20"
   transform="translate(508.9238,615.5981)">
					<path
   id="path22"
   connector-curvature="0"
   d="m 136.302,-306.447 v -4.023 c 0,-0.39 0.102,-0.699 0.307,-0.93 0.205,-0.23 0.476,-0.345 0.814,-0.345 0.399,0 0.768,0.178 1.106,0.538 l 0.707,-1.214 c -0.604,-0.542 -1.28,-0.814 -2.027,-0.814 -0.717,0 -1.334,0.253 -1.851,0.761 -0.517,0.506 -0.776,1.189 -0.776,2.05 v 3.978 h -1.029 v 1.383 h 1.029 v 2.566 h 1.72 v -2.566 h 2.15 v -1.383 h -2.15 z"
   inkscape:connector-curvature="0"
   style="fill:#ffffff" />
				</g>
				<g
   id="g24"
   transform="translate(521.4985,610.6699)">
					<path
   id="path26"
   connector-curvature="0"
   d="m 129.763,-303.884 v -4.423 h -1.72 v 11.382 h 1.72 v -4.701 c 0.246,0.502 0.617,0.897 1.114,1.183 0.496,0.288 1.032,0.43 1.605,0.43 0.921,0 1.667,-0.281 2.235,-0.845 0.568,-0.563 0.852,-1.378 0.852,-2.442 v -5.008 h -1.72 v 4.486 c 0,1.505 -0.625,2.258 -1.874,2.258 -0.594,0 -1.111,-0.198 -1.552,-0.592 -0.44,-0.394 -0.66,-0.97 -0.66,-1.728"
   inkscape:connector-curvature="0"
   style="fill:#ffffff" />
				</g>
				<g
   id="g28"
   transform="translate(541.5308,611.2148)">
					<path
   id="path30"
   connector-curvature="0"
   d="m 119.346,-304.166 h 4.685 c 0,0.685 -0.215,1.212 -0.645,1.581 -0.43,0.369 -0.952,0.553 -1.566,0.553 -0.645,0 -1.219,-0.192 -1.72,-0.576 -0.503,-0.385 -0.754,-0.905 -0.754,-1.558 m 6.406,-1.353 h -6.405 c 0.041,-0.595 0.312,-1.073 0.814,-1.437 0.502,-0.363 1.075,-0.545 1.72,-0.545 1.024,0 1.802,0.323 2.335,0.968 l 0.983,-1.074 c -0.881,-0.913 -2.028,-1.368 -3.441,-1.368 -1.147,0 -2.122,0.38 -2.926,1.145 -0.804,0.763 -1.206,1.78 -1.206,3.048 0,1.301 0.41,2.33 1.229,3.087 0.82,0.759 1.777,1.138 2.872,1.138 1.127,0 2.079,-0.336 2.857,-1.006 0.778,-0.67 1.167,-1.595 1.167,-2.772 v -1.184 z"
   inkscape:connector-curvature="0"
   style="fill:#ffffff" />
				</g>
				<g
   id="g32"
   transform="translate(570.4268,615.5981)">
					<path
   id="path34"
   connector-curvature="0"
   d="m 104.321,-306.447 v -4.023 c 0,-0.39 0.102,-0.699 0.307,-0.93 0.205,-0.23 0.476,-0.345 0.814,-0.345 0.4,0 0.768,0.178 1.106,0.538 l 0.707,-1.214 c -0.604,-0.542 -1.28,-0.814 -2.028,-0.814 -0.717,0 -1.334,0.253 -1.851,0.761 -0.518,0.506 -0.775,1.189 -0.775,2.05 v 3.978 h -1.029 v 1.383 h 1.029 v 2.566 h 1.72 v -2.566 h 2.15 v -1.383 h -2.15 z"
   inkscape:connector-curvature="0"
   style="fill:#ffffff" />
				</g>
				<g
   id="g36"
   transform="translate(583.002,610.6699)">
					<path
   id="path38"
   connector-curvature="0"
   d="m 97.781,-303.884 v -4.423 h -1.72 v 11.382 h 1.72 v -4.701 c 0.246,0.502 0.617,0.897 1.114,1.183 0.496,0.288 1.031,0.43 1.605,0.43 0.921,0 1.666,-0.281 2.235,-0.845 0.568,-0.563 0.852,-1.378 0.852,-2.442 v -5.008 h -1.72 v 4.486 c 0,1.505 -0.625,2.258 -1.874,2.258 -0.594,0 -1.111,-0.198 -1.551,-0.592 -0.44,-0.394 -0.661,-0.97 -0.661,-1.728"
   inkscape:connector-curvature="0"
   style="fill:#ffffff" />
				</g>
				<path
   id="path40"
   connector-curvature="0"
   d="m 691.151,302.362 h -1.72 v 8.172 h 1.72 v -8.172 z m -1.612,9.793 c -0.215,0.22 -0.323,0.478 -0.323,0.775 0,0.297 0.108,0.548 0.323,0.753 0.216,0.205 0.471,0.308 0.768,0.308 0.307,0 0.563,-0.102 0.768,-0.308 0.205,-0.205 0.308,-0.456 0.308,-0.753 0,-0.297 -0.108,-0.555 -0.323,-0.775 -0.214,-0.22 -0.466,-0.33 -0.752,-0.33 -0.298,0 -0.554,0.109 -0.769,0.33"
   inkscape:connector-curvature="0"
   style="fill:#ffffff" />
				<g
   id="g42"
   transform="translate(614.5215,610.6699)">
					<path
   id="path44"
   connector-curvature="0"
   d="m 81.391,-303.884 v -4.423 h -1.72 v 8.172 h 1.72 v -1.491 c 0.277,0.502 0.659,0.897 1.145,1.183 0.487,0.288 1.011,0.43 1.574,0.43 0.922,0 1.667,-0.281 2.235,-0.845 0.568,-0.563 0.852,-1.378 0.852,-2.442 v -5.008 h -1.72 v 4.486 c 0,1.505 -0.624,2.258 -1.874,2.258 -0.594,0 -1.111,-0.198 -1.552,-0.592 -0.439,-0.394 -0.66,-0.97 -0.66,-1.728"
   inkscape:connector-curvature="0"
   style="fill:#ffffff" />
				</g>
				<g
   id="g46"
   transform="translate(638.6816,605.4863)">
					<path
   id="path48"
   connector-curvature="0"
   d="m 68.828,-301.188 c 0.687,0 1.247,0.235 1.682,0.706 0.434,0.471 0.653,1.055 0.653,1.751 0,0.707 -0.22,1.303 -0.661,1.79 -0.441,0.486 -0.998,0.73 -1.674,0.73 -0.716,0 -1.282,-0.252 -1.698,-0.753 -0.414,-0.502 -0.622,-1.091 -0.622,-1.766 0,-0.666 0.208,-1.241 0.622,-1.727 0.416,-0.489 0.982,-0.731 1.698,-0.731 m 4.055,6.236 v -7.127 c 0,-1.444 -0.391,-2.527 -1.174,-3.249 -0.784,-0.723 -1.764,-1.084 -2.942,-1.084 -1.28,0 -2.417,0.384 -3.409,1.153 l 0.814,1.305 c 0.798,-0.605 1.633,-0.906 2.503,-0.906 0.759,0 1.375,0.21 1.852,0.629 0.476,0.42 0.713,1.091 0.713,2.012 v 1.044 c -0.255,-0.48 -0.622,-0.865 -1.098,-1.151 -0.476,-0.287 -1.011,-0.43 -1.605,-0.43 -1.085,0 -1.977,0.379 -2.673,1.137 -0.697,0.758 -1.045,1.72 -1.045,2.887 0,1.086 0.348,2.008 1.045,2.766 0.695,0.758 1.588,1.136 2.673,1.136 1.075,0 1.951,-0.445 2.627,-1.336 v 1.213 l 1.719,10e-4 0,0 z"
   inkscape:connector-curvature="0"
   style="fill:#ffffff" />
				</g>
				<g
   id="g50"
   transform="translate(671.8018,606.7021)">
					<path
   id="path52"
   connector-curvature="0"
   d="m 51.606,-301.821 c 0,-0.829 -0.283,-1.477 -0.845,-1.942 -0.564,-0.466 -1.285,-0.699 -2.166,-0.699 -0.594,0 -1.211,0.108 -1.851,0.323 -0.64,0.215 -1.207,0.517 -1.697,0.906 l 0.829,1.336 c 0.953,-0.716 1.874,-1.074 2.766,-1.074 0.389,0 0.695,0.089 0.921,0.269 0.226,0.178 0.338,0.407 0.338,0.684 0,0.409 -0.544,0.778 -1.628,1.106 -0.083,0.03 -0.144,0.051 -0.184,0.062 -1.7,0.46 -2.55,1.229 -2.55,2.303 0,0.758 0.295,1.365 0.883,1.82 0.589,0.455 1.303,0.684 2.144,0.684 1.045,0 1.986,-0.277 2.827,-0.83 l -0.645,-1.275 c -0.666,0.441 -1.389,0.661 -2.166,0.661 -0.41,0 -0.743,-0.075 -0.998,-0.223 -0.255,-0.148 -0.385,-0.37 -0.385,-0.667 0,-0.134 0.032,-0.249 0.094,-0.346 0.061,-0.097 0.163,-0.179 0.306,-0.246 0.144,-0.066 0.28,-0.118 0.408,-0.153 0.128,-0.036 0.305,-0.083 0.53,-0.138 0.225,-0.057 0.409,-0.11 0.553,-0.162 0.369,-0.112 0.672,-0.22 0.913,-0.323 0.24,-0.102 0.498,-0.246 0.776,-0.43 0.277,-0.184 0.483,-0.414 0.622,-0.691 0.134,-0.278 0.205,-0.596 0.205,-0.955"
   inkscape:connector-curvature="0"
   style="fill:#ffffff" />
				</g>
				<g
   id="g54"
   transform="translate(692.1211,618.478)">
					<path
   id="path56"
   connector-curvature="0"
   d="m 41.039,-307.944 -3.962,-9.708 c -0.236,-0.533 -0.573,-0.952 -1.014,-1.259 -0.44,-0.309 -0.927,-0.462 -1.459,-0.462 -0.747,0 -1.423,0.272 -2.027,0.814 l 0.784,1.398 c 0.358,-0.337 0.758,-0.506 1.198,-0.506 0.328,0 0.612,0.138 0.852,0.413 0.241,0.277 0.361,0.579 0.361,0.908 0,0.142 -1.102,2.944 -3.302,8.401 h 1.842 l 2.443,-6.021 2.441,6.021 1.843,10e-4 0,0 z"
   inkscape:connector-curvature="0"
   style="fill:#ffffff" />
				</g>
				<g
   id="g58"
   transform="translate(707.5449,606.7021)">
					<path
   id="path60"
   connector-curvature="0"
   d="m 33.019,-301.821 c 0,-0.829 -0.281,-1.477 -0.845,-1.942 -0.564,-0.465 -1.285,-0.699 -2.165,-0.699 -0.595,0 -1.212,0.108 -1.852,0.323 -0.641,0.215 -1.206,0.517 -1.697,0.906 l 0.829,1.336 c 0.952,-0.716 1.874,-1.074 2.765,-1.074 0.39,0 0.697,0.089 0.922,0.269 0.225,0.178 0.338,0.407 0.338,0.684 0,0.409 -0.543,0.778 -1.629,1.106 -0.082,0.03 -0.144,0.051 -0.184,0.062 -1.699,0.46 -2.55,1.229 -2.55,2.303 0,0.758 0.294,1.365 0.883,1.82 0.59,0.455 1.303,0.684 2.144,0.684 1.044,0 1.987,-0.277 2.827,-0.83 l -0.645,-1.275 c -0.666,0.441 -1.388,0.661 -2.166,0.661 -0.409,0 -0.743,-0.075 -0.999,-0.223 -0.255,-0.148 -0.383,-0.37 -0.383,-0.667 0,-0.134 0.03,-0.249 0.092,-0.346 0.061,-0.097 0.163,-0.179 0.308,-0.246 0.142,-0.066 0.278,-0.118 0.406,-0.153 0.128,-0.036 0.305,-0.083 0.53,-0.138 0.227,-0.057 0.41,-0.11 0.553,-0.162 0.369,-0.112 0.673,-0.22 0.914,-0.323 0.241,-0.102 0.498,-0.246 0.775,-0.43 0.277,-0.184 0.484,-0.414 0.623,-0.691 0.137,-0.278 0.206,-0.596 0.206,-0.955"
   inkscape:connector-curvature="0"
   style="fill:#ffffff" />
				</g>
				<g
   id="g62"
   transform="translate(716.793,615.5981)">
					<path
   id="path64"
   connector-curvature="0"
   d="m 28.21,-306.447 v -4.023 c 0,-0.39 0.102,-0.699 0.307,-0.93 0.205,-0.23 0.477,-0.345 0.814,-0.345 0.399,0 0.768,0.178 1.106,0.538 l 0.706,-1.214 c -0.605,-0.542 -1.28,-0.814 -2.028,-0.814 -0.716,0 -1.334,0.253 -1.85,0.761 -0.517,0.506 -0.776,1.189 -0.776,2.05 v 3.978 h -1.03 v 1.383 h 1.03 v 2.566 h 1.721 v -2.566 h 2.149 v -1.383 H 28.21 z"
   inkscape:connector-curvature="0"
   style="fill:#ffffff" />
				</g>
				<g
   id="g66"
   transform="translate(728.4082,611.2148)">
					<path
   id="path68"
   connector-curvature="0"
   d="m 22.17,-304.166 h 4.685 c 0,0.685 -0.215,1.212 -0.645,1.581 -0.43,0.369 -0.952,0.553 -1.567,0.553 -0.645,0 -1.219,-0.192 -1.72,-0.576 -0.502,-0.385 -0.753,-0.905 -0.753,-1.558 m 6.406,-1.353 H 22.17 c 0.041,-0.595 0.312,-1.073 0.813,-1.437 0.502,-0.363 1.076,-0.545 1.72,-0.545 1.023,0 1.803,0.323 2.336,0.968 l 0.983,-1.074 c -0.881,-0.913 -2.028,-1.368 -3.441,-1.368 -1.147,0 -2.123,0.38 -2.927,1.145 -0.804,0.763 -1.206,1.78 -1.206,3.048 0,1.301 0.41,2.33 1.23,3.087 0.819,0.759 1.777,1.138 2.872,1.138 1.127,0 2.078,-0.336 2.856,-1.006 0.778,-0.67 1.169,-1.595 1.169,-2.772 v -1.184 l 0.001,0 z"
   inkscape:connector-curvature="0"
   style="fill:#ffffff" />
				</g>
				<g
   id="g70"
   transform="translate(749.6895,610.6699)">
					<path
   id="path72"
   connector-curvature="0"
   d="m 11.104,-303.884 v -4.423 h -1.72 v 8.172 h 1.72 v -1.491 c 0.246,0.502 0.616,0.897 1.113,1.183 0.497,0.288 1.031,0.43 1.605,0.43 1.291,0 2.166,-0.532 2.627,-1.598 0.809,1.065 1.817,1.598 3.025,1.598 0.923,0 1.668,-0.281 2.236,-0.845 0.569,-0.563 0.852,-1.378 0.852,-2.442 v -5.008 h -1.72 v 4.486 c 0,1.505 -0.626,2.258 -1.875,2.258 -0.584,0 -1.092,-0.188 -1.528,-0.561 -0.435,-0.374 -0.663,-0.92 -0.684,-1.636 v -4.547 h -1.72 v 4.486 c 0,0.777 -0.137,1.348 -0.414,1.712 -0.276,0.363 -0.712,0.546 -1.306,0.546 -0.594,0 -1.11,-0.198 -1.551,-0.592 -0.441,-0.394 -0.66,-0.97 -0.66,-1.728"
   inkscape:connector-curvature="0"
   style="fill:#ffffff" />
				</g>
				<g
   id="g74"
   transform="translate(472.7388,634.5234)">
					<path
   id="path76"
   connector-curvature="0"
   d="m 155.119,-316.288 c -5.907,0 -10.713,-4.806 -10.713,-10.713 0,-5.908 4.806,-10.713 10.713,-10.713 5.907,0 10.712,4.805 10.712,10.713 -10e-4,5.907 -4.806,10.713 -10.712,10.713"
   inkscape:connector-curvature="0" />
				</g>
				<g
   id="g78"
   transform="translate(472.8833,593.0586)">
					<path
   id="path80"
   connector-curvature="0"
   d="m 155.043,-294.726 c -5.075,0 -9.19,4.114 -9.19,9.19 0,5.074 4.115,9.189 9.19,9.189 5.075,0 9.19,-4.115 9.19,-9.189 0,-5.076 -4.114,-9.19 -9.19,-9.19 m -0.069,19.183 c -5.519,0 -9.993,-4.475 -9.993,-9.993 0,-5.518 4.474,-9.993 9.993,-9.993 5.519,0 9.992,4.475 9.992,9.993 0,5.519 -4.474,9.993 -9.992,9.993"
   inkscape:connector-curvature="0"
   style="fill:#ffffff" />
				</g>
				<g
   id="g82"
   transform="translate(473.1367,615.1699)">
					<path
   id="path84"
   connector-curvature="0"
   d="m 154.911,-306.223 v -4.025 c 0,-0.389 0.102,-0.698 0.307,-0.929 0.205,-0.231 0.476,-0.346 0.814,-0.346 0.399,0 0.768,0.179 1.106,0.537 l 0.707,-1.213 c -0.604,-0.543 -1.28,-0.815 -2.028,-0.815 -0.717,0 -1.334,0.254 -1.851,0.761 -0.518,0.508 -0.776,1.191 -0.776,2.05 v 3.978 h -1.029 v 1.383 h 1.029 v 2.566 h 1.72 v -2.566 h 2.15 v -1.383 h -2.15 v 0.002 z"
   inkscape:connector-curvature="0"
   style="fill:#ffffff" />
				</g>
			</g>
		</g>
	</g>
</g>
</svg>